<svg xmlns="http://www.w3.org/2000/svg" width="94" height="40" viewBox="0 0 94 40" fill="none"><path d="M26.4917 26.394L31.9758 18.9415L27.1466 12.0303H29.383L31.9695 15.7041C32.5084 16.4658 32.8815 17.049 33.097 17.454C33.4162 16.9525 33.7934 16.4175 34.2266 15.8531L37.0598 12.0303H39.1179L34.1893 18.8576L39.4951 26.394H37.1904L33.611 21.2704C33.4058 20.9788 33.211 20.6893 33.0286 20.4018C32.7115 20.8823 32.4877 21.2201 32.3488 21.411L28.7508 26.394H26.4917ZM41.4682 26.394V12.0303H43.3501V26.3961H41.4682V26.394ZM45.1014 26.394L50.544 12.0282H52.6083L58.3846 26.394H56.2499L54.6084 22.0404H48.6331L47.0932 26.394H45.1014ZM49.1844 20.4962H54.0198L52.5399 16.514C52.0943 15.3034 51.7565 14.3047 51.5223 13.5158C51.3275 14.4516 51.0663 15.3705 50.7389 16.2811L49.1844 20.4962ZM59.3028 19.4031C59.3028 17.0218 59.937 15.1565 61.2013 13.8095C62.4655 12.4626 64.0987 11.7891 66.0988 11.7891C67.4107 11.7891 68.59 12.108 69.6429 12.7395C70.6937 13.371 71.4958 14.2543 72.0471 15.3873C72.5984 16.5182 72.8761 17.8023 72.8761 19.2374C72.8761 20.6914 72.586 21.9964 72.0036 23.1419C71.4212 24.2917 70.6004 25.1624 69.5372 25.7499C68.4698 26.3416 67.3216 26.6353 66.0884 26.6353C64.7495 26.6353 63.5578 26.308 62.5049 25.6555C61.4541 25.003 60.6541 24.1134 60.1132 22.9846C59.5722 21.8579 59.3028 20.6641 59.3028 19.4031ZM61.2448 19.4367C61.2448 21.1655 61.7049 22.5272 62.621 23.5196C63.5391 24.512 64.6915 25.0114 66.0801 25.0114C67.4936 25.0114 68.6522 24.5099 69.5683 23.507C70.4802 22.5041 70.9362 21.0795 70.9362 19.2332C70.9362 18.0666 70.7414 17.0469 70.3517 16.1762C69.9621 15.3076 69.3901 14.632 68.6419 14.1536C67.8895 13.6753 67.046 13.4361 66.1112 13.4361C64.7827 13.4361 63.6407 13.8977 62.6832 14.8208C61.7236 15.7419 61.2448 17.2798 61.2448 19.4367ZM75.2534 26.394V12.0303H78.068L81.4235 22.1978C81.7344 23.144 81.9582 23.8532 82.1012 24.3253C82.2629 23.8028 82.5178 23.0349 82.8598 22.0216L86.2754 12.0303H88.7894V26.3961H86.9863V14.3781L82.8453 26.3961H81.154L77.0565 14.1578V26.3961H75.2534V26.394ZM92.118 26.394V12.0303H93.9999V26.3961H92.118V26.394Z" fill="#C1C4D0"></path><path fill-rule="evenodd" clip-rule="evenodd" d="M20.7611 9.5H0.435243C0.194823 9.5 0 9.69303 0 9.93431V30.0678C0 30.307 0.194823 30.5021 0.435243 30.5021H20.7611C21.0015 30.5021 21.1963 30.307 21.1963 30.0678V9.93431C21.1963 9.69303 21.0015 9.5 20.7611 9.5ZM18.8792 14.6152H16.2657V25.3723H18.8792V14.6152ZM9.62718 18.7653H6.95562V25.2841H9.62718V18.7653ZM4.95972 14.6446L2.34619 14.6152V25.3702H4.95765V16.8896C5.78046 16.8791 8.86654 16.8434 10.0831 16.8602C11.0282 16.8749 11.677 17.498 11.6832 18.4611L11.7309 25.3534L14.2677 25.3429C14.2677 25.3429 14.2408 20.1018 14.2387 17.6491C14.2387 16.1133 13.1195 14.6446 11.4656 14.6446H4.95972Z" fill="#C1C4D0"></path></svg>