<svg xmlns="http://www.w3.org/2000/svg" width="101" height="40" viewBox="0 0 101 40" fill="none"><path d="M100.999 25.0759V26.8944H100.694V25.493H100.675L100.169 26.8944H99.9067L99.4048 25.493V26.8944H99.0959V25.0759H99.5554L100.061 26.5005L100.54 25.0759H100.999V25.0759ZM98.8991 25.0759V25.3384H98.3084V26.8942H98.0034V25.3384H97.413V25.0759H98.8991ZM91.2634 22.3618C91.7226 20.8753 91.7226 19.999 91.2827 19.4276C90.9545 19.0338 90.4758 18.8369 89.7501 18.8369C88.1327 18.8369 87.237 19.7558 86.515 22.0567C86.0518 23.5662 86.0518 24.4425 86.4918 25.0102C86.7968 25.3846 87.3024 25.5816 88.0244 25.5816C89.6187 25.5816 90.5413 24.6821 91.2634 22.3618ZM97.5866 19.0338C98.2196 19.8253 98.3548 20.8292 97.9804 22.0568C96.9304 25.4504 92.9696 27.3962 87.1017 27.3962C83.6005 27.3962 81.2186 26.7168 80.1646 25.404C79.5316 24.6166 79.4234 23.5895 79.7941 22.3618C80.844 18.9682 84.8048 17.0224 90.6725 17.0224C94.1508 17.0224 96.5597 17.7212 97.5865 19.0338H97.5866ZM75.702 17.3505H81.9172C81.5428 17.8525 74.7832 26.9367 74.6714 27.0912H65.1323C65.086 26.8055 63.9473 17.7019 63.9047 17.3505H69.7495C69.7918 17.6362 70.6025 24.1802 70.6025 24.1802C70.6025 24.1802 75.6132 17.4818 75.702 17.3505V17.3505ZM56.4194 22.3618C56.8788 20.8753 56.9021 19.999 56.4425 19.4276C56.1337 19.0338 55.632 18.8369 54.9331 18.8369C53.3118 18.8369 52.3931 19.7558 51.6941 22.0567C51.2117 23.5662 51.2117 24.4425 51.671 25.0102C51.976 25.3846 52.4817 25.5816 53.1804 25.5816C54.8019 25.5816 55.7206 24.6821 56.4194 22.3618V22.3618ZM62.7659 19.0338C63.4027 19.8253 63.5341 20.8292 63.1403 22.0568C62.0904 25.4504 58.1257 27.3962 52.2849 27.3962C48.7836 27.3962 46.3979 26.7168 45.344 25.404C44.7109 24.6166 44.5797 23.5895 44.9503 22.3618C46.0235 18.9682 49.9842 17.0224 55.8288 17.0224C59.33 17.0224 61.7159 17.7212 62.7659 19.0338ZM44.4715 18.5553C44.7108 18.8603 44.8421 19.1651 44.7764 19.6053L42.3483 27.1106H35.9131L38.1908 20.1074C38.2757 19.8023 38.1676 19.5398 37.9939 19.3429C37.685 18.9684 37.0288 18.7291 34.7744 18.8834C34.7744 18.8834 32.107 27.0026 32.0605 27.1106H25.629C25.691 26.9368 28.6479 17.8989 28.6904 17.8101C30.9257 17.4163 33.8787 17.0456 36.9439 17.0456C41.1013 17.0457 43.6376 17.5476 44.4715 18.5553V18.5553ZM20.9888 20.6131C21.1201 19.9992 20.9232 19.5398 20.703 19.2772C20.4638 18.9684 19.9348 18.5745 18.8424 18.5745C17.2906 18.5745 16.1286 19.3197 15.7347 20.5667L14.9703 23.4352L20.9888 20.6131ZM26.3933 20.5898C26.3933 21.0492 26.2853 21.4431 26.1964 21.6168C25.9996 21.6632 14.7736 24.1572 14.7736 24.1572C14.7736 24.1572 14.6615 24.7055 15.0786 24.991C15.6268 25.3849 16.2174 25.4931 17.2211 25.5355C19.6957 25.6437 23.0462 24.1997 23.9846 23.7865C23.834 24.2653 22.8689 26.3694 22.8264 26.4775C22.4094 26.6319 20.0893 27.3732 15.5378 27.3964C13.8083 27.4195 10.724 27.1995 9.4539 25.6011C8.82083 24.8136 8.70899 23.6978 9.14511 22.2964C10.1758 18.949 14.0285 17.0226 19.6724 17.0226C22.8264 17.0226 24.8839 17.6133 25.8259 18.7715C26.1964 19.2541 26.3933 19.8679 26.3933 20.5898V20.5898ZM4.48562 12.6018H10.8554C10.7241 13.015 6.43531 26.848 6.36576 27.0912H0C0.131119 26.6743 4.41996 12.8413 4.48562 12.6018" fill="#C1C4D0"></path></svg>