<svg xmlns="http://www.w3.org/2000/svg" width="119" height="40" viewBox="0 0 119 40" fill="none"><path d="M46.5725 13.2888C46.5725 12.8128 46.7616 12.3562 47.0983 12.0196C47.4349 11.6829 47.8915 11.4938 48.3676 11.4938C48.8436 11.4938 49.3002 11.6829 49.6368 12.0196C49.9734 12.3562 50.1625 12.8128 50.1625 13.2888C50.1452 13.7533 49.9485 14.193 49.6137 14.5154C49.279 14.8379 48.8323 15.0181 48.3676 15.0181C47.9028 15.0181 47.456 14.8379 47.1213 14.5154C46.7866 14.193 46.5898 13.7533 46.5725 13.2888" fill="#C1C4D0"></path><path d="M74.8938 25.2601C74.8938 24.2638 75.6963 23.4588 76.685 23.4588C77.1624 23.4588 77.6203 23.6485 77.9578 23.986C78.2954 24.3236 78.485 24.7814 78.485 25.2588C78.485 25.7362 78.2954 26.1941 77.9578 26.5316C77.6203 26.8692 77.1624 27.0588 76.685 27.0588C75.6975 27.0588 74.8938 26.2526 74.8938 25.2588" fill="#C1C4D0"></path><path d="M17.1137 24.4813C15.5687 24.4813 14.4937 23.2538 14.4937 21.4988C14.4937 19.7451 15.5687 18.5188 17.115 18.5188C18.6687 18.5188 19.755 19.7451 19.755 21.4988C19.755 23.2813 18.6925 24.4813 17.1137 24.4813V24.4813ZM17.1137 15.8976C13.8437 15.8976 11.47 18.2538 11.47 21.4988C11.47 24.7451 13.845 27.1001 17.1137 27.1001C20.3975 27.1001 22.7799 24.7451 22.7799 21.5001C22.7799 18.2538 20.3975 15.8976 17.115 15.8976H17.1137ZM43.0962 21.7801C42.9824 21.56 42.8385 21.3568 42.6687 21.1763L42.5687 21.0726L42.6737 20.9726C42.8237 20.8138 42.9774 20.6263 43.1249 20.4088L46.0124 16.1188H42.5075L40.3387 19.4751C40.2162 19.6551 39.9687 19.7451 39.5975 19.7451H39.1037V13.4001C39.1037 12.1313 38.3125 11.9588 37.4587 11.9588H35.9962L35.9999 26.9351H39.1049V22.4426H39.3962C39.75 22.4426 39.9899 22.4838 40.1012 22.6763L41.8137 25.9088C42.2924 26.7863 42.7687 26.9351 43.6662 26.9351H46.0449L44.2725 24.0051L43.0975 21.7801H43.0962ZM58.1687 15.8726C56.5887 15.8726 55.5812 16.5751 55.0162 17.1688L54.8287 17.3588L54.7612 17.1001C54.5962 16.4638 54.0362 16.1151 53.195 16.1151H51.8037L51.8125 26.9313H54.8962V21.9463C54.8962 21.4588 54.9587 21.0363 55.0887 20.6501C55.4312 19.4813 56.3887 18.7551 57.5849 18.7551C58.5474 18.7551 58.9237 19.2638 58.9237 20.5763V25.2876C58.9237 26.4076 59.4424 26.9313 60.5637 26.9313H62.0312L62.0262 20.0513C62.0262 17.3188 60.6925 15.8738 58.1687 15.8738V15.8726ZM48.4049 16.1188H46.9437L46.9537 24.4826V26.9351H48.5124L48.5674 26.9376L49.295 26.9351H50.0175V26.9313H50.0224L50.0287 17.7626C50.0287 16.6563 49.5 16.1201 48.4062 16.1201L48.4049 16.1188ZM29.2249 24.4813C27.6799 24.4813 26.6037 23.2538 26.6037 21.4988C26.6037 19.7451 27.68 18.5188 29.2262 18.5188C30.7762 18.5188 31.8662 19.7451 31.8662 21.4988C31.8662 23.2813 30.8037 24.4813 29.2262 24.4813H29.2249ZM29.2249 15.8976C25.9524 15.8976 23.5774 18.2538 23.5774 21.4988C23.5774 24.7451 25.9525 27.1001 29.2262 27.1001C32.505 27.1001 34.8924 24.7451 34.8924 21.5001C34.8924 18.2538 32.505 15.8976 29.2262 15.8976" fill="#C1C4D0"></path><path d="M95.3188 24.4813C93.7738 24.4813 92.6963 23.2538 92.6963 21.4988C92.6963 19.7451 93.7738 18.5188 95.3188 18.5188C96.8713 18.5188 97.9601 19.7451 97.9601 21.4988C97.9601 23.2813 96.8976 24.4813 95.3188 24.4813ZM95.3188 15.8976C92.0463 15.8976 89.6726 18.2538 89.6726 21.4988C89.6726 24.7451 92.0463 27.1001 95.3188 27.1001C98.5988 27.1001 100.985 24.7451 100.985 21.5001C100.985 18.2538 98.5976 15.8976 95.3188 15.8976" fill="#C1C4D0"></path><path d="M68.5276 24.005C66.8414 24.005 66.2414 22.535 66.2414 21.1562C66.2414 20.5487 66.3951 18.57 68.3664 18.57C69.3451 18.57 70.6488 18.85 70.6488 21.2575C70.6488 23.5287 69.4951 24.005 68.5276 24.005V24.005ZM72.2501 16.09C71.6651 16.09 71.2151 16.3237 70.9889 16.75L70.9039 16.915L70.7614 16.79C70.2639 16.36 69.3714 15.8487 67.9226 15.8487C65.0389 15.8487 63.0977 18.015 63.0977 21.2362C63.0977 24.4562 65.1064 26.7062 67.9802 26.7062C68.9614 26.7062 69.7376 26.4762 70.3526 26.0112L70.5901 25.8325V26.1325C70.5901 27.5775 69.6564 28.375 67.9626 28.375C67.1389 28.375 66.3901 28.175 65.8876 27.9925C65.2351 27.795 64.8501 27.9587 64.5864 28.615L64.3414 29.22L63.9951 30.105L64.2089 30.2187C65.2939 30.7937 66.7052 31.1375 67.9802 31.1375C70.6052 31.1375 73.6726 29.7937 73.6726 26.0112L73.6839 16.09H72.2501" fill="#C1C4D0"></path><path d="M5.63124 24.3576L3.12125 24.3551V21.3551C3.12125 20.7126 3.37 20.3801 3.91875 20.3026H5.63124C6.85249 20.3026 7.64247 21.0726 7.64372 22.3188C7.64247 23.5988 6.87249 24.3563 5.63124 24.3563V24.3576ZM3.12125 16.2626V15.4726C3.12125 14.7813 3.41376 14.4526 4.05501 14.4101H5.34003C6.44128 14.4101 7.10127 15.0688 7.10127 16.1726C7.10127 17.0126 6.64875 17.9938 5.38 17.9938H3.12125V16.2626V16.2626ZM8.83627 19.2576L8.38248 19.0026L8.77875 18.6638C9.24 18.2676 10.0113 17.3763 10.0113 15.8388C10.0113 13.4838 8.18627 11.9638 5.36002 11.9638H1.76749C1.36325 11.9786 0.980207 12.1483 0.697693 12.4378C0.415178 12.7273 0.254868 13.1144 0.25 13.5188V26.8813H5.42372C8.56497 26.8813 10.5925 25.1713 10.5925 22.5226C10.5925 21.0963 9.93752 19.8776 8.83627 19.2576" fill="#C1C4D0"></path><path d="M114.759 15.9088C114.122 15.9112 113.494 16.0565 112.921 16.3341C112.348 16.6117 111.845 17.0144 111.449 17.5126L111.226 17.7951L111.051 17.4788C110.479 16.4376 109.496 15.9088 108.13 15.9088C106.696 15.9088 105.735 16.7088 105.289 17.1838L104.996 17.5001L104.884 17.0838C104.721 16.4838 104.188 16.1551 103.38 16.1551H102.084L102.071 26.9301H105.015V22.1738C105.015 21.7563 105.068 21.3451 105.171 20.9138C105.453 19.7638 106.225 18.5276 107.524 18.6513C108.324 18.7288 108.716 19.3476 108.716 20.5426V26.9301H111.681V22.1738C111.681 21.6526 111.73 21.2626 111.848 20.8726C112.085 19.7751 112.893 18.6501 114.145 18.6501C115.053 18.6501 115.388 19.1626 115.388 20.5426V25.3551C115.388 26.4426 115.873 26.9301 116.961 26.9301H118.346L118.349 20.0513C118.349 17.3026 117.139 15.9088 114.759 15.9088V15.9088ZM87.9663 23.1888C87.9575 23.2001 86.6913 24.5351 85.0226 24.5351C83.5026 24.5351 81.9676 23.6026 81.9676 21.5213C81.9676 19.7238 83.1576 18.4676 84.8626 18.4676C85.4151 18.4676 86.0451 18.6651 86.1438 18.9988L86.1576 19.0551C86.2206 19.2848 86.3576 19.4874 86.5474 19.6314C86.7373 19.7753 86.9693 19.8527 87.2075 19.8513L88.8201 19.8538V18.4438C88.8201 16.5838 86.4538 15.9088 84.8626 15.9088C81.4576 15.9088 78.9875 18.2788 78.9875 21.5438C78.9875 24.8063 81.4301 27.1738 84.8001 27.1738C87.7226 27.1738 89.3126 25.2526 89.3276 25.2338L89.4126 25.1288L88.135 23.0101L87.9663 23.1888" fill="#C1C4D0"></path></svg>